<svg width="84" height="76" viewBox="0 0 84 76" fill="none" xmlns="http://www.w3.org/2000/svg">
<path d="M60.8451 5.90003C66.5871 6.40003 73.2201 8.20003 76.1901 12.4C79.2591 16.7 78.7641 23.3 79.7541 30.6C80.7441 37.8 83.2191 45.6 80.5461 50.5C77.8731 55.4 70.0521 57.3 63.3201 61.5C56.6871 65.7 51.0441 72.1 44.5101 73.9C37.8771 75.7 30.2541 72.9 25.7001 67.5C21.1461 62 19.6611 54 16.1961 47.3C12.8301 40.6 7.3851 35.3 5.0091 28.6C2.6331 21.9 3.3261 13.9 8.3751 9.90003C13.3251 5.90003 22.5321 6.00003 29.4621 6.10003C36.3921 6.30003 40.9461 6.40003 45.5991 6.20003C50.3511 6.00003 55.2021 5.30003 60.8451 5.90003Z" stroke="url(#paint0_linear_3_22)"/>
<mask id="mask0_3_22" style="mask-type:luminance" maskUnits="userSpaceOnUse" x="13" y="30" width="65" height="10">
<path d="M77.1801 30H13.8201V40H77.1801V30Z" fill="white"/>
</mask>
<g mask="url(#mask0_3_22)">
<path d="M31.0419 32.2207C29.935 32.2207 29.426 32.7978 29.0382 33.551L29.2119 33.1417L29.1472 32.3762H27.4485V38.1478H29.2119V35.1167C29.2119 34.3288 29.5734 33.7946 30.4056 33.7946C30.5933 33.7931 30.7796 33.8271 30.955 33.8949C30.9658 33.2948 31.1798 32.7168 31.561 32.2575C31.3932 32.2265 31.2225 32.2142 31.052 32.2207" fill="black"/>
<path d="M14.628 39.5336V38.1684C15.2345 38.5064 15.9199 38.6719 16.6116 38.6473C17.1913 38.6473 18.4073 38.5471 18.4073 37.4194V36.8811C18.08 37.6465 17.2801 37.8799 16.5126 37.8799C14.83 37.8799 13.8201 36.7378 13.8201 35.0943C13.8201 33.4509 14.8603 32.229 16.5045 32.229C17.3912 32.229 18.0922 32.5851 18.6517 33.5941L18.3446 33.019L18.3992 32.3866H20.108V37.2044C20.108 39.4353 18.4214 40.0002 16.7772 40.0002C15.7672 40.0002 15.0037 39.7792 14.63 39.5336M18.3547 35.0943C18.3547 34.3064 17.8518 33.7067 16.965 33.7067C16.0783 33.7067 15.5511 34.3064 15.5511 35.0943C15.5511 35.8823 16.0662 36.482 16.965 36.482C17.8639 36.482 18.3547 35.8823 18.3547 35.0943Z" fill="black"/>
<path d="M21.3905 32.3865H21.3359V40.0001C22.3338 39.6726 23.0993 38.9256 23.0993 37.4254V32.3865H21.3905Z" fill="black"/>
<path d="M26.111 32.3865H24.3477V38.1581H26.111V32.3865Z" fill="black"/>
<path d="M31.5952 36.4818C31.5952 35.3172 32.284 34.7401 33.7747 34.7401H35.7562V34.298C35.7562 33.731 35.429 33.5427 34.617 33.5427C33.8736 33.5427 33.5222 33.7085 33.4576 34.1752H31.8921C31.8255 32.677 32.9223 32.2227 34.6533 32.2227C36.6732 32.2227 37.5236 32.8653 37.5236 34.1752V38.158H36.039L35.8632 37.3393H35.8188C35.4148 37.9533 34.5483 38.3156 33.607 38.3156C32.3688 38.3156 31.6033 37.7016 31.6033 36.4736M34.318 36.973C35.1401 36.973 35.7643 36.6291 35.7643 36.052V35.8268H34.0676C33.6292 35.8268 33.399 36.0315 33.399 36.3938C33.399 36.756 33.6292 36.9811 34.2413 36.9811L34.318 36.973Z" fill="black"/>
<path d="M41.3411 31.4654C40.814 31.4654 40.5837 31.6435 40.5837 32.1981V32.3864H42.3268V33.9071H40.5837V38.158H38.8203V32.1858C38.8203 30.8657 39.3798 30 41.022 30H42.3268V31.4654H41.3411Z" fill="black"/>
<path d="M42.8824 36.4818C42.8824 35.3172 43.5732 34.7401 45.0618 34.7401H47.0454V34.298C47.0454 33.731 46.7161 33.5427 45.9062 33.5427C45.1608 33.5427 44.8093 33.7085 44.7447 34.1752H43.1773C43.1126 32.677 44.2074 32.2227 45.9385 32.2227C47.9583 32.2227 48.8087 32.8653 48.8087 34.1752V38.158H47.3181L47.1443 37.3393H47.0999C46.6959 37.9533 45.8294 38.3156 44.878 38.3156C43.6418 38.3156 42.8743 37.7016 42.8743 36.4736M45.591 36.973C46.4131 36.973 47.0373 36.6291 47.0373 36.052V35.8268H45.3385C44.9002 35.8268 44.67 36.0315 44.67 36.3938C44.67 36.756 44.9002 36.9811 45.5143 36.9811L45.591 36.973Z" fill="black"/>
<path d="M53.4669 33.9073H51.6613V35.8598C51.6613 36.4492 51.8795 36.615 52.4268 36.615H53.4669V38.2134H52.0977C50.4552 38.2134 49.896 37.4705 49.896 36.1484V30.3276H51.6613V32.3866H53.4669V33.9073Z" fill="black"/>
<path d="M55.9206 35.8042C56.0642 36.5267 56.5124 36.9585 57.389 36.9585C57.9485 36.9585 58.3747 36.7702 58.5383 36.3711H60.215C60.0392 37.3474 59.0314 38.3236 57.2902 38.3236C55.2521 38.3236 54.1472 36.9913 54.1472 35.272C54.1472 33.5528 55.2742 32.2205 57.3021 32.2205C59.3303 32.2205 60.534 33.5508 60.3684 35.8042H55.9206ZM55.9104 34.7808H58.6496C58.4959 33.8926 58.0435 33.5365 57.3021 33.5365C56.468 33.5365 56.0197 33.9601 55.9104 34.7808Z" fill="black"/>
<path d="M61.1685 35.272C61.1685 33.5733 62.2632 32.2205 64.3237 32.2205C66.0971 32.2205 67.1514 33.2438 67.3252 34.6949H65.5942C65.4506 34.1177 64.9881 33.8066 64.3237 33.8066C63.4247 33.8066 62.9096 34.4206 62.9096 35.272C62.9096 36.1234 63.4247 36.7374 64.3237 36.7374C64.98 36.7374 65.4506 36.4264 65.5942 35.8492H67.3252C67.1718 37.3023 66.0971 38.3236 64.3237 38.3236C62.2632 38.3236 61.1685 36.9708 61.1685 35.272Z" fill="black"/>
<path d="M74.435 34.8607V38.1579H72.6596V35.1943C72.6596 34.3388 72.3101 33.7842 71.3891 33.7842C70.4681 33.7842 70.0419 34.3388 70.0419 35.1943V38.1579H68.2783V30.3171H70.0419V33.1518L69.8983 33.4956C70.2821 32.7854 70.8862 32.2205 72.08 32.2205C73.6959 32.2205 74.435 33.2295 74.435 34.8607Z" fill="black"/>
<path d="M76.3296 38.1579C76.1613 38.1579 75.997 38.1073 75.8572 38.0126C75.7174 37.918 75.6085 37.7834 75.544 37.626C75.4795 37.4685 75.4629 37.2953 75.4955 37.1281C75.5284 36.961 75.6095 36.8074 75.7283 36.6869C75.8474 36.5664 75.9987 36.4844 76.1636 36.4511C76.3286 36.4179 76.4996 36.435 76.655 36.5002C76.8104 36.5654 76.9431 36.6758 77.0368 36.8175C77.1301 36.9592 77.18 37.1258 77.18 37.2962C77.1793 37.5246 77.0897 37.7434 76.9302 37.9049C76.7711 38.0664 76.5549 38.1573 76.3296 38.1579ZM76.3296 36.5205C76.1762 36.5205 76.0262 36.5666 75.8986 36.653C75.771 36.7393 75.6716 36.8621 75.6129 37.0057C75.5542 37.1493 75.5389 37.3073 75.5688 37.4598C75.599 37.6122 75.6726 37.7523 75.7812 37.8622C75.8898 37.9721 76.0279 38.047 76.1782 38.0773C76.3289 38.1076 76.4847 38.092 76.6265 38.0325C76.768 37.9731 76.8892 37.8723 76.9747 37.7431C77.0598 37.6138 77.1053 37.4619 77.1053 37.3064C77.1053 37.098 77.0235 36.8981 76.878 36.7507C76.7327 36.6033 76.5352 36.5205 76.3296 36.5205Z" fill="black"/>
<path d="M76.6393 37.6953H76.4818L76.306 37.3985H76.1706V37.6953H76.0332V36.8992H76.3766C76.4109 36.8977 76.4452 36.903 76.4774 36.915C76.5096 36.9269 76.5392 36.9452 76.5646 36.9688C76.5877 36.9923 76.6057 37.0205 76.6176 37.0515C76.6294 37.0825 76.6345 37.1156 76.6332 37.1489C76.6366 37.2069 76.6179 37.2642 76.5806 37.3085C76.5463 37.3483 76.4991 37.3744 76.4472 37.3822L76.6393 37.6953ZM76.3583 37.2757C76.3939 37.2765 76.4282 37.2641 76.4553 37.241C76.4676 37.229 76.4774 37.2147 76.4839 37.1989C76.4906 37.1831 76.494 37.166 76.4937 37.1489C76.4944 37.1316 76.491 37.1145 76.4845 37.0986C76.4777 37.0827 76.4679 37.0684 76.4553 37.0568C76.4282 37.0336 76.3939 37.0212 76.3583 37.022H76.1706V37.2757H76.3583Z" fill="black"/>
</g>
<defs>
<linearGradient id="paint0_linear_3_22" x1="3.69629" y1="74.4443" x2="71.9323" y2="-2.98852" gradientUnits="userSpaceOnUse">
<stop stop-color="#202124"/>
<stop offset="1" stop-color="gray"/>
</linearGradient>
</defs>
</svg>
