<svg width="69" height="55" viewBox="0 0 69 55" fill="none" xmlns="http://www.w3.org/2000/svg">
<path d="M8.29356 32.8268C10.1125 32.8268 11.5871 31.3519 11.5871 29.5326C11.5871 27.7134 10.1125 26.2385 8.29356 26.2385C6.47458 26.2385 5 27.7134 5 29.5326C5 31.3519 6.47458 32.8268 8.29356 32.8268Z" fill="#EC681C"/>
<path d="M9.96509 31.2867H7.30554L6.65506 27.762L6.301 27.7291L6.26807 27.5562L6.91855 27.6303L7.00088 28.075L10.3192 28.4373C10.3192 28.4373 10.0968 29.8291 9.97333 30.5785H7.45375C7.45375 30.5785 7.52785 30.8997 7.56079 31.0809H9.97333C9.97333 31.0726 9.96509 31.1467 9.96509 31.2867ZM7.07499 28.3714L7.1738 28.8903L7.6596 28.9232L7.60196 28.4209L7.07499 28.3714ZM7.80781 28.9397L8.2195 28.9726L8.20304 28.495L7.7584 28.4456L7.80781 28.9397ZM8.77941 28.5609L8.35125 28.5114L8.36771 28.9809L8.77118 29.0138L8.77941 28.5609ZM8.2195 29.1373L7.82428 29.1044L7.87368 29.5738L8.23597 29.5903L8.2195 29.1373ZM8.39242 29.5985L8.75471 29.615L8.76294 29.1867L8.37595 29.162L8.39242 29.5985ZM7.66783 29.0962L7.19026 29.0632L7.28084 29.5573L7.71723 29.5738C7.72547 29.5656 7.70077 29.2856 7.66783 29.0962ZM9.30638 29.0467L9.34755 28.6185L8.91939 28.5691L8.91115 29.0138L9.30638 29.0467ZM8.90292 29.1867L8.88645 29.615L9.24874 29.6314L9.28991 29.2197L8.90292 29.1867ZM7.89015 29.7467C7.91485 29.9526 7.93955 30.2079 7.93955 30.2079H8.26067L8.2442 29.7632L7.89015 29.7467ZM9.92392 29.0962C9.92392 29.0879 9.98979 28.6926 9.98979 28.6926L9.50399 28.635L9.46282 29.055C9.46282 29.0632 9.87452 29.0962 9.92392 29.0962ZM7.74194 29.7385L7.31377 29.722L7.40435 30.1997H7.79957M9.40519 29.6397L9.83335 29.6562L9.89922 29.2691L9.44636 29.2362L9.40519 29.6397ZM8.73824 29.7797L8.39242 29.7632L8.40888 30.1997H8.72177L8.73824 29.7797ZM9.24051 29.7962L8.88645 29.7879L8.87822 30.2079H9.19934L9.24051 29.7962ZM9.74278 30.2079L9.80865 29.8209L9.38872 29.8044L9.34755 30.2079H9.74278Z" fill="white"/>
<path d="M9.37226 32.1272C9.5587 32.1272 9.70985 31.976 9.70985 31.7896C9.70985 31.6031 9.5587 31.4519 9.37226 31.4519C9.18581 31.4519 9.03467 31.6031 9.03467 31.7896C9.03467 31.976 9.18581 32.1272 9.37226 32.1272Z" fill="white"/>
<path d="M8.0224 32.1272C8.20885 32.1272 8.36 31.976 8.36 31.7896C8.36 31.6031 8.20885 31.4519 8.0224 31.4519C7.83596 31.4519 7.68481 31.6031 7.68481 31.7896C7.68481 31.976 7.83596 32.1272 8.0224 32.1272Z" fill="white"/>
<path d="M12.6582 26.1155H13.004L13.9098 30.2167C14.0744 30.9578 14.2391 31.6908 14.4038 32.4319H14.445C14.6096 31.6908 14.7908 30.9578 14.9802 30.2167L16.0835 26.1155H16.454L17.5574 30.2167C17.7385 30.9578 17.9279 31.6908 18.1091 32.4319H18.1502C18.3149 31.6908 18.4549 30.9578 18.6196 30.2167L19.5253 26.1155H19.8546L18.2984 32.8767H17.9691L16.6599 28.0178C16.5364 27.4825 16.4129 27.0378 16.2894 26.5025H16.2482C16.1247 27.0378 15.9847 27.4825 15.8612 28.0178L14.5685 32.8767H14.2391L12.6582 26.1155Z" fill="black"/>
<path d="M20.5127 26.1155H24.1439V26.4037H20.8421V29.1296H23.6086V29.4178H20.8421V32.5884H24.2427V32.8767H20.5127V26.1155Z" fill="black"/>
<path d="M25.0409 26.1155H26.803C28.1534 26.1155 28.9932 26.6508 28.9932 27.7543C28.9932 28.4708 28.5815 29.0225 27.7828 29.2284V29.2696C28.7874 29.4096 29.4214 29.9696 29.4214 30.9084C29.4214 32.2014 28.458 32.8767 26.9183 32.8767H25.0327V26.1155H25.0409ZM26.5972 29.1296C28.071 29.1296 28.6639 28.6602 28.6639 27.7131C28.6639 26.7908 27.964 26.4037 26.6548 26.4037H25.3621V29.1296H26.5972ZM26.803 32.5884C28.2192 32.5884 29.1003 32.0778 29.1003 30.9249C29.1003 29.9037 28.2604 29.4096 26.803 29.4096H25.3703V32.5884H26.803Z" fill="black"/>
<path d="M29.7014 29.4753C29.7014 27.3424 30.8624 26 32.4927 26C34.1148 26 35.2675 27.3424 35.2675 29.4753C35.2675 31.6165 34.1066 33 32.4927 33C30.8624 33 29.7014 31.6165 29.7014 29.4753ZM34.7735 29.4753C34.7735 27.6059 33.8513 26.4282 32.4845 26.4282C31.1094 26.4282 30.1872 27.6059 30.1872 29.4753C30.1872 31.3529 31.1094 32.5718 32.4845 32.5718C33.8513 32.5718 34.7735 31.3529 34.7735 29.4753Z" fill="#EC681C"/>
<path d="M39.9695 32.8767L38.1415 29.772H36.7088V32.8767H36.2395V26.1238H38.1662C39.5084 26.1238 40.3894 26.6179 40.3894 27.9108C40.3894 28.9897 39.7142 29.5991 38.6603 29.7473L40.5129 32.885H39.9695V32.8767ZM38.0427 29.385C39.2449 29.385 39.8954 28.8991 39.8954 27.9108C39.8954 26.8979 39.2366 26.5273 38.0427 26.5273H36.7088V29.385H38.0427Z" fill="#EC681C"/>
<path d="M41.394 26.1238H41.8634V32.8767H41.394V26.1238Z" fill="#EC681C"/>
<path d="M45.8233 26C46.7373 26 47.2972 26.4282 47.6595 26.8071L47.3795 27.1118C47.0337 26.7329 46.5561 26.4282 45.8233 26.4282C44.2753 26.4282 43.3202 27.6059 43.3202 29.4835C43.3202 31.3612 44.2342 32.5718 45.7657 32.5718C46.3668 32.5718 46.9431 32.3906 47.2725 32.0612V29.9529H45.6669V29.5494H47.7253V32.2259C47.3054 32.6788 46.6055 32.9918 45.7245 32.9918C43.9954 32.9918 42.8262 31.6247 42.8262 29.4753C42.8262 27.3424 44.0366 26 45.8233 26Z" fill="#EC681C"/>
<path d="M48.4341 29.4753C48.4341 27.3424 49.5951 26 51.2254 26C52.8475 26 54.0002 27.3424 54.0002 29.4753C54.0002 31.6165 52.8392 33 51.2254 33C49.5951 33 48.4341 31.6165 48.4341 29.4753ZM53.5062 29.4753C53.5062 27.6059 52.584 26.4282 51.2171 26.4282C49.8421 26.4282 48.9199 27.6059 48.9199 29.4753C48.9199 31.3529 49.8421 32.5718 51.2171 32.5718C52.584 32.5718 53.5062 31.3529 53.5062 29.4753Z" fill="#EC681C"/>
<path d="M51.7 3.79996C58.7 1.59996 68.8 0.199958 68.4 3.49996C67.9 6.79996 56.7 14.9 55.5 22.3C54.3 29.7 63 36.3 64.4 41.3C65.9 46.3 60.1 49.6 54.3 50C48.5 50.3 42.8 47.8 36.5 48.7C30.2 49.7 23.3 54.1 17 54C10.7 53.9 4.99997 49.4 2.49997 43.5C-0.100026 37.5 0.599974 30.3 3.99997 24.9C7.29997 19.6 13.2 16.1 16.6 11.6C19.9 7.19996 20.7 1.69996 23.7 1.49996C26.7 1.39996 31.8 6.59996 36.3 7.79996C40.8 8.89996 44.7 5.99996 51.7 3.79996Z" stroke="url(#paint0_linear_0_1)"/>
<defs>
<linearGradient id="paint0_linear_0_1" x1="0.924805" y1="54.0016" x2="51.8156" y2="-11.4127" gradientUnits="userSpaceOnUse">
<stop stop-color="#202124"/>
<stop offset="1" stop-color="#808080"/>
</linearGradient>
</defs>
</svg>
