<svg width="78" height="78" viewBox="0 0 78 78" fill="none" xmlns="http://www.w3.org/2000/svg">
<g clip-path="url(#clip0_6_35)">
<path d="M25.4506 52.7521C25.4464 52.1042 25.6224 51.4696 25.9565 50.9288C26.2905 50.3879 26.7675 49.9652 27.3269 49.7141C27.8863 49.4631 28.503 49.395 29.0986 49.5186C29.6943 49.6423 30.2422 49.952 30.6728 50.4084C31.1034 50.8649 31.3973 51.4477 31.5172 52.0828C31.6372 52.7178 31.5777 53.3766 31.3465 53.9756C31.1153 54.5746 30.7226 55.0867 30.2184 55.4471C29.7141 55.8076 29.121 56 28.5142 56C28.1132 56.0015 27.716 55.9187 27.345 55.7563C26.9741 55.5939 26.6367 55.3551 26.3522 55.0535C26.0678 54.7519 25.8417 54.3934 25.687 53.9985C25.5323 53.6036 25.452 53.1801 25.4506 52.7521ZM43.627 50.9116C43.6228 50.2854 43.793 49.6719 44.1158 49.1491C44.4387 48.6263 44.8997 48.2176 45.4404 47.9749C45.9811 47.7321 46.5772 47.6663 47.153 47.7858C47.7288 47.9052 48.2584 48.2045 48.6746 48.6458C49.0909 49.087 49.375 49.6503 49.491 50.2642C49.6069 50.878 49.5495 51.5149 49.326 52.0938C49.1025 52.6728 48.723 53.1679 48.2356 53.5163C47.7482 53.8647 47.1748 54.0507 46.5882 54.0507C45.8057 54.0537 45.0541 53.7247 44.4988 53.1361C43.9435 52.5475 43.6299 51.747 43.627 50.9116ZM35.6623 46.365C35.6582 45.7388 35.8283 45.1254 36.1512 44.6025C36.4741 44.0797 36.9351 43.671 37.4758 43.4283C38.0165 43.1856 38.6126 43.1197 39.1884 43.2392C39.7642 43.3586 40.2938 43.658 40.71 44.0992C41.1263 44.5404 41.4104 45.1037 41.5263 45.7176C41.6423 46.3315 41.5849 46.9683 41.3614 47.5473C41.1379 48.1263 40.7584 48.6213 40.271 48.9697C39.7835 49.3181 39.2102 49.5041 38.6236 49.5041C37.841 49.507 37.0895 49.1779 36.5341 48.5892C35.9788 48.0005 35.6652 47.2005 35.6623 46.365ZM30.5567 41.8184C30.5548 41.4948 30.6429 41.1779 30.8099 40.9078C30.9769 40.6377 31.2153 40.4267 31.4948 40.3014C31.7743 40.1761 32.0823 40.1423 32.3799 40.2042C32.6774 40.2661 32.951 40.4209 33.1661 40.649C33.3811 40.8771 33.5278 41.1682 33.5877 41.4855C33.6475 41.8028 33.6178 42.1318 33.5022 42.431C33.3867 42.7302 33.1905 42.986 32.9386 43.166C32.6867 43.3461 32.3904 43.4422 32.0872 43.4422C31.6827 43.4433 31.2942 43.2729 31.0072 42.9685C30.7202 42.664 30.5582 42.2504 30.5567 41.8184ZM41.9933 41.277C41.9916 41.018 42.062 40.7642 42.1956 40.548C42.3291 40.3317 42.5198 40.1626 42.7435 40.0622C42.9672 39.9618 43.2137 39.9345 43.4519 39.9838C43.6901 40.0332 43.9092 40.1569 44.0815 40.3394C44.2537 40.5218 44.3714 40.7548 44.4195 41.0087C44.4676 41.2626 44.444 41.526 44.3517 41.7656C44.2594 42.0052 44.1025 42.2101 43.901 42.3544C43.6995 42.4987 43.4624 42.5759 43.2198 42.5761C43.0593 42.5769 42.9003 42.5439 42.7518 42.479C42.6033 42.4142 42.4682 42.3187 42.3543 42.198C42.2404 42.0774 42.1499 41.9339 42.0879 41.7759C42.026 41.6179 41.9938 41.4483 41.9933 41.277ZM44.4442 37.0551C44.4407 36.5153 44.5874 35.9865 44.8658 35.5358C45.1442 35.0851 45.5416 34.7329 46.0078 34.5237C46.4739 34.3145 46.9878 34.2578 47.4841 34.3608C47.9805 34.4638 48.437 34.7219 48.7958 35.1023C49.1546 35.4827 49.3995 35.9683 49.4995 36.4975C49.5994 37.0267 49.5499 37.5757 49.3572 38.0748C49.1645 38.5739 48.8374 39.0007 48.4172 39.301C47.997 39.6013 47.5027 39.7616 46.9971 39.7617C46.663 39.7629 46.3319 39.6939 46.0228 39.5585C45.7138 39.4232 45.4327 39.2242 45.1956 38.9728C44.9585 38.7215 44.7702 38.4228 44.6413 38.0938C44.5123 37.7647 44.4454 37.4118 44.4442 37.0551ZM23.0001 36.9468C22.9966 36.4284 23.1375 35.9207 23.4047 35.488C23.6719 35.0552 24.0535 34.717 24.5011 34.5161C24.9487 34.3152 25.442 34.2608 25.9186 34.3597C26.3952 34.4586 26.8335 34.7064 27.178 35.0716C27.5225 35.4369 27.7576 35.9031 27.8535 36.4112C27.9495 36.9193 27.9019 37.4464 27.7169 37.9256C27.5318 38.4048 27.2176 38.8145 26.8142 39.1028C26.4107 39.3911 25.9361 39.545 25.4506 39.5449C25.1299 39.5461 24.8121 39.4798 24.5154 39.3499C24.2187 39.22 23.9489 39.0289 23.7213 38.7877C23.4938 38.5464 23.3129 38.2597 23.1892 37.9438C23.0654 37.6279 23.0012 37.2891 23.0001 36.9468ZM39.1339 36.9468C39.1317 36.6013 39.2256 36.2629 39.4038 35.9745C39.5819 35.6861 39.8363 35.4607 40.1346 35.3268C40.4329 35.193 40.7617 35.1567 41.0794 35.2226C41.397 35.2886 41.6892 35.4537 41.9188 35.6971C42.1484 35.9406 42.3051 36.2513 42.369 36.59C42.433 36.9287 42.4013 37.28 42.278 37.5994C42.1547 37.9188 41.9453 38.1919 41.6764 38.3841C41.4075 38.5763 41.0912 38.6789 40.7676 38.6789C40.5538 38.6797 40.342 38.6355 40.1442 38.5489C39.9464 38.4622 39.7665 38.3349 39.6148 38.174C39.4631 38.0132 39.3425 37.822 39.26 37.6115C39.1775 37.4009 39.1347 37.175 39.1339 36.9468ZM31.3735 35.4314C31.3704 34.9562 31.4995 34.4908 31.7445 34.0942C31.9895 33.6975 32.3393 33.3875 32.7496 33.2034C33.1599 33.0192 33.6121 32.9694 34.049 33.0601C34.4859 33.1507 34.8877 33.3779 35.2034 33.7127C35.5192 34.0475 35.7347 34.4749 35.8226 34.9407C35.9105 35.4065 35.8669 35.8896 35.6973 36.3289C35.5276 36.7682 35.2396 37.1437 34.8698 37.408C34.4999 37.6723 34.0649 37.8133 33.6198 37.8132C33.3258 37.8143 33.0345 37.7536 32.7626 37.6344C32.4906 37.5153 32.2432 37.3402 32.0346 37.119C31.826 36.8978 31.6603 36.6349 31.5468 36.3454C31.4334 36.0558 31.3745 35.7452 31.3735 35.4314ZM49.5495 33.6993C49.5478 33.4402 49.6183 33.1864 49.7519 32.9701C49.8855 32.7538 50.0763 32.5847 50.3 32.4843C50.5237 32.3839 50.7703 32.3567 51.0086 32.4062C51.2468 32.4556 51.4659 32.5795 51.6381 32.7621C51.8103 32.9446 51.9279 33.1777 51.9758 33.4317C52.0238 33.6857 52 33.9492 51.9075 34.1887C51.8151 34.4283 51.658 34.6331 51.4564 34.7772C51.2547 34.9214 51.0175 34.9983 50.7748 34.9983C50.4509 34.9995 50.14 34.8633 49.9102 34.6197C49.6804 34.376 49.5507 34.045 49.5495 33.6993ZM32.803 27.9628C32.7994 27.3799 32.958 26.8089 33.2588 26.3223C33.5596 25.8357 33.9889 25.4554 34.4923 25.2297C34.9958 25.0039 35.5507 24.9428 36.0867 25.0542C36.6227 25.1656 37.1157 25.4444 37.5031 25.8553C37.8905 26.2661 38.1549 26.7906 38.2627 27.3621C38.3706 27.9336 38.317 28.5264 38.1089 29.0654C37.9008 29.6044 37.5474 30.0652 37.0936 30.3895C36.6399 30.7138 36.1061 30.8869 35.56 30.8869C35.1991 30.8883 34.8415 30.8137 34.5076 30.6675C34.1738 30.5213 33.8701 30.3062 33.6141 30.0347C33.3581 29.7631 33.1546 29.4404 33.0155 29.0849C32.8763 28.7294 32.8041 28.3481 32.803 27.9628Z" fill="#F62006"/>
<path d="M57.88 4.69589C63.4 6.86189 65.44 15.7539 65.08 23.2779C64.6 30.6879 61.6 36.8439 61.96 43.2279C62.2 49.4979 65.8 55.9959 63.04 58.1619C60.28 60.3279 51.04 58.1619 45.16 60.4419C39.28 62.6079 36.64 69.1059 33.16 70.4739C29.68 71.8419 25.36 68.0799 20.92 65.0019C16.48 62.0379 11.92 59.7579 10.6 56.2239C9.16003 52.6899 10.96 47.9019 8.32003 41.5179C5.68003 35.2479 -1.51997 27.3819 1.00003 25.7859C3.64003 24.1899 15.88 28.7499 22.96 27.3819C30.04 26.1279 32.08 18.9459 37.6 13.0179C43.12 7.20389 52.24 2.52989 57.88 4.69589Z" stroke="url(#paint0_linear_6_35)"/>
</g>
<defs>
<linearGradient id="paint0_linear_6_35" x1="0.473389" y1="70.7631" x2="67.0506" y2="6.14525" gradientUnits="userSpaceOnUse">
<stop stop-color="#202124"/>
<stop offset="1" stop-color="#808080"/>
</linearGradient>
<clipPath id="clip0_6_35">
<rect width="78" height="78" fill="white"/>
</clipPath>
</defs>
</svg>
